<svg width="430" height="431" viewBox="0 0 430 431" fill="none" xmlns="http://www.w3.org/2000/svg">
<circle opacity="0.5" cx="214.5" cy="107.5" r="323.5" fill="url(#paint0_linear_1_2)"/>
<path opacity="0.56" d="M96 69C82.2696 70.2482 74.3809 71.3966 69.5378 75.1912C63.8459 79.6348 62.4979 87.7732 61 104.05C59.4522 87.174 58.0542 79.0856 51.8131 74.7418C46.97 71.3466 39.1312 70.2482 26 69.0499C39.6805 67.8017 47.6191 66.6534 52.4123 62.9087C58.1541 58.4151 59.5021 50.3267 61 34C62.398 49.0285 63.6462 57.067 68.2896 61.7104C72.933 66.3538 81.0214 67.6519 96 69Z" fill="white"/>
<path opacity="0.56" d="M178.964 281.482C168.967 282.391 163.224 283.227 159.698 285.989C155.554 289.225 154.572 295.15 153.482 307C152.355 294.713 151.337 288.825 146.793 285.662C143.267 283.19 137.56 282.391 128 281.518C137.96 280.609 143.74 279.773 147.23 277.047C151.41 273.775 152.391 267.887 153.482 256C154.5 266.942 155.408 272.794 158.789 276.175C162.17 279.555 168.058 280.5 178.964 281.482Z" fill="white"/>
<path opacity="0.3" d="M124 172.5C116.743 173.16 112.573 173.767 110.013 175.772C107.004 178.121 106.292 182.423 105.5 191.026C104.682 182.106 103.943 177.831 100.644 175.535C98.0842 173.74 93.9408 173.16 87 172.526C94.2311 171.867 98.4272 171.26 100.961 169.28C103.996 166.905 104.708 162.63 105.5 154C106.239 161.944 106.899 166.193 109.353 168.647C111.807 171.101 116.083 171.787 124 172.5Z" fill="white"/>
<path opacity="0.56" d="M399 107.5C391.743 108.16 387.573 108.767 385.013 110.772C382.004 113.121 381.292 117.423 380.5 126.026C379.682 117.106 378.943 112.831 375.644 110.535C373.084 108.74 368.941 108.16 362 107.526C369.231 106.867 373.427 106.26 375.961 104.28C378.996 101.905 379.708 97.6298 380.5 89C381.239 96.9437 381.899 101.193 384.353 103.647C386.807 106.101 391.083 106.787 399 107.5Z" fill="white"/>
<path opacity="0.56" d="M246 25.5C238.743 26.1598 234.573 26.7668 232.013 28.7725C229.004 31.1213 228.292 35.423 227.5 44.0264C226.682 35.1063 225.943 30.831 222.644 28.535C220.084 26.7404 215.941 26.1598 209 25.5264C216.231 24.8666 220.427 24.2596 222.961 22.2803C225.996 19.9051 226.708 15.6298 227.5 7C228.239 14.9437 228.899 19.1926 231.353 21.6469C233.807 24.1013 238.083 24.7874 246 25.5Z" fill="white"/>
<path opacity="0.3" d="M349.964 38.4818C339.967 39.3906 334.224 40.2267 330.698 42.9893C326.554 46.2245 325.572 52.1497 324.482 64C323.355 51.7135 322.337 45.8247 317.793 42.6622C314.267 40.1903 308.56 39.3906 299 38.5182C308.96 37.6094 314.74 36.7733 318.23 34.047C322.41 30.7755 323.391 24.8867 324.482 13C325.5 23.9416 326.408 29.794 329.789 33.1746C333.17 36.5552 339.058 37.5004 349.964 38.4818Z" fill="white"/>
<path opacity="0.56" d="M168 122C162.508 122.499 159.352 122.959 157.415 124.476C155.138 126.254 154.599 129.509 154 136.02C153.381 129.27 152.822 126.034 150.325 124.297C148.388 122.939 145.252 122.499 140 122.02C145.472 121.521 148.648 121.061 150.565 119.563C152.862 117.766 153.401 114.531 154 108C154.559 114.011 155.058 117.227 156.916 119.084C158.773 120.942 162.009 121.461 168 122Z" fill="white"/>
<path opacity="0.56" d="M243 157C237.508 157.499 234.352 157.959 232.415 159.476C230.138 161.254 229.599 164.509 229 171.02C228.381 164.27 227.822 161.034 225.325 159.297C223.388 157.939 220.252 157.499 215 157.02C220.472 156.521 223.648 156.061 225.565 154.563C227.862 152.766 228.401 149.531 229 143C229.559 149.011 230.058 152.227 231.916 154.084C233.773 155.942 237.009 156.461 243 157Z" fill="white"/>
<path opacity="0.56" d="M297 251C291.508 251.499 288.352 251.959 286.415 253.476C284.138 255.254 283.599 258.509 283 265.02C282.381 258.27 281.822 255.034 279.325 253.297C277.388 251.939 274.252 251.499 269 251.02C274.472 250.521 277.648 250.061 279.565 248.563C281.862 246.766 282.401 243.531 283 237C283.559 243.011 284.058 246.227 285.916 248.084C287.773 249.942 291.009 250.461 297 251Z" fill="white"/>
<circle opacity="0.3" cx="260" cy="87" r="10" fill="white"/>
<circle opacity="0.57" cx="387" cy="206" r="12" fill="white"/>
<circle opacity="0.57" cx="196" cy="206" r="5" fill="white"/>
<circle opacity="0.3" cx="117" cy="51" r="7" fill="white"/>
<circle opacity="0.57" cx="326" cy="218" r="5" fill="white"/>
<circle opacity="0.3" cx="348" cy="159" r="5" fill="white"/>
<circle opacity="0.57" cx="201" cy="74" r="5" fill="white"/>
<circle opacity="0.57" cx="392" cy="39" r="5" fill="white"/>
<circle opacity="0.57" cx="66" cy="251" r="5" fill="white"/>
<circle opacity="0.57" cx="284.5" cy="142.5" r="6.5" fill="white"/>
<circle opacity="0.4" cx="24.5" cy="187.5" r="6.5" fill="white"/>
<path opacity="0.3" d="M124 172.5C116.743 173.16 112.573 173.767 110.013 175.772C107.004 178.121 106.292 182.423 105.5 191.026C104.682 182.106 103.943 177.831 100.644 175.535C98.0842 173.74 93.9408 173.16 87 172.526C94.2311 171.867 98.4272 171.26 100.961 169.28C103.996 166.905 104.708 162.63 105.5 154C106.239 161.944 106.899 166.193 109.353 168.647C111.807 171.101 116.083 171.787 124 172.5Z" fill="white"/>
<path opacity="0.56" d="M246 25.5C238.743 26.1598 234.573 26.7668 232.013 28.7725C229.004 31.1213 228.292 35.423 227.5 44.0264C226.682 35.1063 225.943 30.831 222.644 28.535C220.084 26.7404 215.941 26.1598 209 25.5264C216.231 24.8666 220.427 24.2596 222.961 22.2803C225.996 19.9051 226.708 15.6298 227.5 7C228.239 14.9437 228.899 19.1926 231.353 21.6469C233.807 24.1013 238.083 24.7874 246 25.5Z" fill="white"/>
<path opacity="0.56" d="M168 122C162.508 122.499 159.352 122.959 157.415 124.476C155.138 126.254 154.599 129.509 154 136.02C153.381 129.27 152.822 126.034 150.325 124.297C148.388 122.939 145.252 122.499 140 122.02C145.472 121.521 148.648 121.061 150.565 119.563C152.862 117.766 153.401 114.531 154 108C154.559 114.011 155.058 117.227 156.916 119.084C158.773 120.942 162.009 121.461 168 122Z" fill="white"/>
<path opacity="0.56" d="M243 157C237.508 157.499 234.352 157.959 232.415 159.476C230.138 161.254 229.599 164.509 229 171.02C228.381 164.27 227.822 161.034 225.325 159.297C223.388 157.939 220.252 157.499 215 157.02C220.472 156.521 223.648 156.061 225.565 154.563C227.862 152.766 228.401 149.531 229 143C229.559 149.011 230.058 152.227 231.916 154.084C233.773 155.942 237.009 156.461 243 157Z" fill="white"/>
<circle opacity="0.57" cx="196" cy="206" r="5" fill="white"/>
<circle opacity="0.3" cx="117" cy="51" r="7" fill="white"/>
<circle opacity="0.57" cx="201" cy="74" r="5" fill="white"/>
<defs>
<linearGradient id="paint0_linear_1_2" x1="214.5" y1="-216" x2="214.5" y2="431" gradientUnits="userSpaceOnUse">
<stop stop-color="white"/>
<stop offset="0.33" stop-color="#CFE9D1"/>
<stop offset="0.395" stop-color="#C5E4C8"/>
<stop offset="0.46" stop-color="#BCE0BF"/>
<stop offset="0.6" stop-color="#B4DCB7"/>
<stop offset="0.68" stop-color="#AFDAB3"/>
<stop offset="1" stop-color="#8FC193"/>
</linearGradient>
</defs>
</svg>
