<svg width="21" height="21" viewBox="0 0 21 21" fill="none" xmlns="http://www.w3.org/2000/svg">
<path d="M6.52798 17.868L6.71829 18.6292C6.73948 18.6239 6.76061 18.6186 6.78168 18.6134C7.06775 18.5423 7.34275 18.474 7.59309 18.3322C7.84345 18.1905 8.04354 17.9898 8.2517 17.7811C8.26702 17.7657 8.28238 17.7503 8.29782 17.7349L17.7055 8.32724L17.7405 8.29217C18.1464 7.88641 18.505 7.52782 18.7552 7.19989C19.0264 6.84444 19.243 6.43444 19.243 5.92308C19.243 5.41172 19.0264 5.00171 18.7552 4.64626C18.505 4.31835 18.1464 3.95977 17.7406 3.55403L17.7054 3.51891L17.4811 3.29455L17.446 3.25946C17.0402 2.85364 16.6817 2.495 16.3537 2.2448C15.9983 1.9736 15.5883 1.75705 15.0769 1.75705C14.5656 1.75705 14.1556 1.9736 13.8001 2.2448C13.4722 2.495 13.1136 2.85365 12.7078 3.25948L12.6728 3.29455L3.26513 12.7022C3.24969 12.7176 3.23428 12.733 3.21892 12.7483C3.01018 12.9565 2.80952 13.1566 2.66776 13.4069C2.52602 13.6573 2.45768 13.9323 2.38658 14.2184C2.38135 14.2394 2.3761 14.2605 2.37081 14.2817L1.50311 17.7525C1.49996 17.7651 1.49677 17.7778 1.49356 17.7907C1.44307 17.9921 1.38596 18.22 1.36699 18.4139C1.34587 18.6298 1.34781 19.0211 1.66334 19.3367C1.97886 19.6522 2.37017 19.6541 2.5861 19.633C2.77999 19.614 3.00786 19.5569 3.20934 19.5064C3.22217 19.5032 3.2349 19.5 3.2475 19.4969L6.71828 18.6292L6.52798 17.868Z" stroke="#BDE0C0" stroke-width="1.56923"/>
<path d="M11.8076 3.96155L17.0384 9.19232" stroke="#BDE0C0" stroke-width="1.30769"/>
<path d="M2.65381 13.7693L7.88458 19.0001" stroke="#BDE0C0" stroke-width="1.30769"/>
</svg>
