<svg width="29" height="28" viewBox="0 0 29 28" fill="none" xmlns="http://www.w3.org/2000/svg">
<path d="M11.6934 6.13129C12.7402 3.52145 13.2637 2.21652 14.1141 2.03567C14.3377 1.98811 14.5688 1.98811 14.7924 2.03567C15.6428 2.21652 16.1663 3.52145 17.2131 6.13129C17.8085 7.61547 18.1061 8.35755 18.6631 8.86229C18.8193 9.00386 18.9889 9.12995 19.1695 9.23878C19.8133 9.62679 20.6169 9.69876 22.2242 9.8427C24.945 10.0864 26.3054 10.2082 26.7209 10.9839C26.8069 11.1445 26.8654 11.3185 26.894 11.4985C27.0317 12.3675 26.0316 13.2774 24.0313 15.0972L23.4759 15.6026C22.5408 16.4534 22.0732 16.8787 21.8027 17.4096C21.6405 17.7281 21.5317 18.071 21.4808 18.4248C21.3958 19.0145 21.5327 19.6316 21.8065 20.8659L21.9044 21.3068C22.3955 23.5202 22.641 24.6269 22.3345 25.1709C22.0592 25.6595 21.552 25.9724 20.9918 25.9991C20.3681 26.0289 19.4893 25.3128 17.7317 23.8806C16.5738 22.937 15.9948 22.4653 15.3521 22.281C14.7647 22.1125 14.1418 22.1125 13.5544 22.281C12.9117 22.4653 12.3327 22.937 11.1747 23.8806C9.41716 25.3128 8.53836 26.0289 7.91468 25.9991C7.35446 25.9724 6.84731 25.6595 6.57198 25.1709C6.26547 24.6269 6.51101 23.5202 7.0021 21.3068L7.09994 20.8659C7.37378 19.6316 7.5107 19.0145 7.42573 18.4248C7.37476 18.071 7.26598 17.7281 7.10375 17.4096C6.8333 16.8787 6.36573 16.4534 5.43059 15.6026L4.87514 15.0972C2.87492 13.2774 1.8748 12.3675 2.01253 11.4985C2.04106 11.3185 2.09956 11.1445 2.1856 10.9839C2.60104 10.2082 3.96146 10.0864 6.6823 9.8427C8.28958 9.69876 9.09322 9.62679 9.73699 9.23878C9.91756 9.12995 10.0871 9.00386 10.2434 8.86229C10.8004 8.35755 11.098 7.61547 11.6934 6.13129Z" stroke="#A7D6AB" stroke-width="3.26091"/>
</svg>
