<svg width="25" height="24" viewBox="0 0 25 24" fill="none" xmlns="http://www.w3.org/2000/svg">
<path d="M9.69336 4.13129C10.7402 1.52145 11.2637 0.216523 12.1141 0.0356661C12.3377 -0.0118887 12.5688 -0.0118887 12.7924 0.0356661C13.6428 0.216523 14.1663 1.52145 15.2131 4.13129C15.8085 5.61547 16.1061 6.35755 16.6631 6.86229C16.8193 7.00386 16.9889 7.12995 17.1695 7.23878C17.8133 7.62679 18.6169 7.69876 20.2242 7.8427C22.945 8.08638 24.3054 8.20821 24.7209 8.98389C24.8069 9.14454 24.8654 9.31848 24.894 9.49847C25.0317 10.3675 24.0316 11.2774 22.0313 13.0972L21.4759 13.6026C20.5408 14.4534 20.0732 14.8787 19.8027 15.4096C19.6405 15.7281 19.5317 16.071 19.4808 16.4248C19.3958 17.0145 19.5327 17.6316 19.8065 18.8659L19.9044 19.3068C20.3955 21.5202 20.641 22.6269 20.3345 23.1709C20.0592 23.6595 19.552 23.9724 18.9918 23.9991C18.3681 24.0289 17.4893 23.3128 15.7317 21.8806C14.5738 20.937 13.9948 20.4653 13.3521 20.281C12.7647 20.1125 12.1418 20.1125 11.5544 20.281C10.9117 20.4653 10.3327 20.937 9.17475 21.8806C7.41716 23.3128 6.53836 24.0289 5.91468 23.9991C5.35446 23.9724 4.84731 23.6595 4.57198 23.1709C4.26547 22.6269 4.51101 21.5202 5.0021 19.3068L5.09994 18.8659C5.37378 17.6316 5.5107 17.0145 5.42573 16.4248C5.37476 16.071 5.26598 15.7281 5.10375 15.4096C4.8333 14.8787 4.36573 14.4534 3.43059 13.6026L2.87514 13.0972C0.874916 11.2774 -0.125196 10.3675 0.0125344 9.49847C0.0410595 9.31848 0.0995589 9.14454 0.1856 8.98389C0.601039 8.20821 1.96146 8.08638 4.6823 7.8427C6.28958 7.69876 7.09322 7.62679 7.73699 7.23878C7.91756 7.12995 8.08714 7.00386 8.24337 6.86229C8.80036 6.35755 9.09802 5.61547 9.69336 4.13129Z" fill="#A7D6AB"/>
</svg>
