<svg width="36" height="41" viewBox="0 0 36 41" fill="none" xmlns="http://www.w3.org/2000/svg">
<path d="M3 20.1609C3 17.1769 3 15.6849 3.6032 14.3734C4.2064 13.0619 5.33922 12.0909 7.60486 10.1489L9.80262 8.26516C13.8977 4.75505 15.9453 3 18.3843 3C20.8233 3 22.8709 4.75505 26.966 8.26516L29.1638 10.1489C31.4294 12.0909 32.5622 13.0619 33.1654 14.3734C33.7686 15.6849 33.7686 17.1769 33.7686 20.1609V29.4803C33.7686 33.6244 33.7686 35.6965 32.4812 36.9839C31.1938 38.2713 29.1217 38.2713 24.9776 38.2713H11.791C7.6469 38.2713 5.57483 38.2713 4.28742 36.9839C3 35.6965 3 33.6244 3 29.4803V20.1609Z" stroke="white" stroke-width="4.39552"/>
<path d="M23.8787 38.2715V27.2827C23.8787 26.0689 22.8947 25.085 21.6809 25.085H15.0877C13.8739 25.085 12.8899 26.0689 12.8899 27.2827V38.2715" stroke="white" stroke-width="4.39552" stroke-linecap="round" stroke-linejoin="round"/>
</svg>
