<svg width="40" height="35" viewBox="0 0 40 35" fill="none" xmlns="http://www.w3.org/2000/svg">
<path d="M20.3936 6.81311V32.2714" stroke="white" stroke-width="3.91667" stroke-linecap="round"/>
<path d="M38.0186 6.81311L38.0186 32.2714" stroke="white" stroke-width="3.91667" stroke-linecap="round"/>
<path d="M2.76855 6.81311L2.76855 32.2714" stroke="white" stroke-width="3.91667" stroke-linecap="round"/>
<path d="M38.0186 32.2715C38.0186 32.2715 36.0602 28.3549 29.2061 28.3549C22.3519 28.3549 20.3936 32.2715 20.3936 32.2715" stroke="white" stroke-width="3.91667" stroke-linecap="round"/>
<path d="M20.3936 32.2715C20.3936 32.2715 18.4352 28.3549 11.5811 28.3549C4.72689 28.3549 2.76855 32.2715 2.76855 32.2715" stroke="white" stroke-width="3.91667" stroke-linecap="round"/>
<path d="M38.0186 6.81303C38.0186 6.81303 36.0602 2.89636 29.2061 2.89636C22.3519 2.89636 20.3936 6.81303 20.3936 6.81303" stroke="white" stroke-width="3.91667" stroke-linecap="round"/>
<path d="M20.3936 6.81303C20.3936 6.81303 18.4352 2.89636 11.5811 2.89636C4.72689 2.89636 2.76855 6.81303 2.76855 6.81303" stroke="white" stroke-width="3.91667" stroke-linecap="round"/>
</svg>
